<svg xmlns="http://www.w3.org/2000/svg" width="1313" height="768" viewBox="0 0 1313 768" role="img" aria-label="DApp Strategic Planner dark theme mockup">
  <defs>
    <filter id="drop" x="-20%" y="-20%" width="140%" height="140%">
      <feGaussianBlur in="SourceAlpha" stdDeviation="8"/>
      <feOffset dx="0" dy="6" result="offsetblur"/>
      <feComponentTransfer>
        <feFuncA type="linear" slope="0.25"/>
      </feComponentTransfer>
      <feMerge>
        <feMergeNode/>
        <feMergeNode in="SourceGraphic"/>
      </feMerge>
    </filter>
    <style><![CDATA[
      .title { font: 700 34px/1.2 ui-sans-serif, -apple-system, Segoe UI, Roboto, Helvetica, Arial; fill: #e5e7eb; }
      .subtitle { font: 500 14px/1.5 ui-sans-serif, -apple-system, Segoe UI, Roboto, Helvetica, Arial; fill: #9aa3b2; }
      .h2 { font: 800 22px/1.2 ui-sans-serif, -apple-system, Segoe UI, Roboto, Helvetica, Arial; fill: #e5e7eb; }
      .label { font: 600 13px/1 ui-sans-serif, -apple-system, Segoe UI, Roboto, Helvetica, Arial; fill: #e5e7eb; }
      .hint { font: 400 12px/1.4 ui-sans-serif, -apple-system, Segoe UI, Roboto, Helvetica, Arial; fill: #9aa3b2; }
      .input { font: 400 14px/1.4 ui-sans-serif, -apple-system, Segoe UI, Roboto, Helvetica, Arial; fill: #9aa3b2; }
      .btn { font: 700 14px/1 ui-sans-serif, -apple-system, Segoe UI, Roboto, Helvetica, Arial; fill: #ffffff; }
      .pill { font: 700 12px/1 ui-sans-serif, -apple-system, Segoe UI, Roboto, Helvetica, Arial; }
      .cardtext { font: 500 14px/1.5 ui-sans-serif, -apple-system, Segoe UI, Roboto, Helvetica, Arial; fill: #9aa3b2; }
    ]]></style>
  </defs>
  <rect width="100%" height="100%" fill="#0f172a"/>
  
  <!-- Header Icon -->
  <g transform="translate(24,18)" filter="url(#drop)">
    <rect rx="20" ry="20" width="64" height="64" fill="#6d28d9"/>
    <circle cx="32" cy="32" r="18" fill="#f472b6"/>
    <circle cx="48" cy="20" r="7" fill="#f0abfc"/>
    <circle cx="20" cy="44" r="6" fill="#f9a8d4"/>
    <!-- small green badge -->
    <circle cx="64" cy="64" r="10" fill="#22c55e" stroke="#0f172a" stroke-width="4"/>
  </g>
  
  <!-- Title -->
  <text class="title" x="106" y="40">DApp Strategic Planner</text>
  <text class="subtitle" x="106" y="65">AI-powered Web3 development strategy &amp; planning platform</text>
  
  <!-- Pills -->
  <g transform="translate(106,78)">
    <rect rx="12" ry="12" width="140" height="26" fill="#1e293b"/>
    <text class="pill" x="16" y="18" fill="#bcd3ff">Strategic Analysis</text>
  </g>
  <g transform="translate(254,78)">
    <rect rx="12" ry="12" width="142" height="26" fill="#2b2f43"/>
    <text class="pill" x="16" y="18" fill="#d8c7ff">Market Intelligence</text>
  </g>
  
  <!-- Theme Toggle -->
  <g transform="translate(1193,62)">
    <rect x="0" y="0" rx="18" ry="18" width="72" height="36" fill="#0b1022" stroke="#3b3568" stroke-width="2"/>
    <circle cx="52" cy="18" r="14" fill="#8b5cf6"/>
  </g>
  
  <!-- Sidebar Card -->
  <g transform="translate(24,168)" filter="url(#drop)">
    <rect width="410" height="576" rx="18" fill="#121a2f"/>
    <text class="h2" x="24" y="44">Project Configuration</text>
    <text class="subtitle" x="24" y="70">Configure your DApp strategy parameters</text>
    
    <!-- AI Prompt -->
    <text class="label" x="24" y="118">AI Prompt</text>
    <rect x="24" y="128" width="362" height="92" rx="10" fill="#0b1327" stroke="#1f2a44" stroke-width="1"/>
    <text class="input" x="40" y="158">Describe your DApp idea or</text>
    <text class="input" x="40" y="179">requirements in natural language...</text>
    
    <!-- AI Fill Form Button -->
    <g transform="translate(24,232)">
      <rect rx="10" ry="10" width="120" height="40" fill="#3b82f6"/>
      <text class="btn" x="20" y="26">AI Fill Form</text>
    </g>
    
    <!-- DApp Type -->
    <text class="label" x="24" y="306">DApp Type</text>
    <g transform="translate(24,318)">
      <rect rx="10" ry="10" width="362" height="44" fill="#0b1327" stroke="#1f2a44" stroke-width="1"/>
      <text class="input" x="48" y="28">DEX (Decentralized Exchange)</text>
      <circle cx="20" cy="22" r="6" fill="none" stroke="#9aa3b2" stroke-width="2"/>
    </g>
    
    <!-- Blockchain -->
    <text class="label" x="24" y="394">Blockchain</text>
    <g transform="translate(24,406)">
      <rect rx="10" ry="10" width="362" height="44" fill="#0b1327" stroke="#1f2a44" stroke-width="1"/>
      <text class="input" x="48" y="28">Ethereum</text>
      <path d="M20 14 L16 22 L20 20 L24 22 Z" fill="#9aa3b2"/>
    </g>
    
    <!-- Business Model -->
    <text class="label" x="24" y="482">Business Model</text>
    <g transform="translate(24,494)">
      <rect rx="10" ry="10" width="362" height="44" fill="#0b1327" stroke="#1f2a44" stroke-width="1"/>
      <text class="input" x="48" y="28">B2C (Business to Consumer)</text>
      <circle cx="20" cy="22" r="6" fill="#9333ea"/>
    </g>
  </g>
  
  <!-- Main Card -->
  <g transform="translate(458,168)" filter="url(#drop)">
    <rect width="831" height="576" rx="18" fill="#121a2f"/>
    <text class="h2" x="24" y="44">Generated Strategic Plan</text>
    <text class="cardtext" x="24" y="76">No plan generated yet. Select parameters and click "Generate Strategic Plan".</text>
  </g>
</svg>
